<svg width="16" height="16" xmlns="http://www.w3.org/2000/svg">
 <title/>

 <g>
  <title>background</title>
  <rect fill="none" id="canvas_background" height="18" width="18" y="-1" x="-1"/>
 </g>
 <g>
  <title>Layer 1</title>
  <path stroke="null" id="svg_1" d="m11.741113,0.840049l-10.81178,10.81178l3.472875,3.472875l10.81178,-10.81178l-3.472875,-3.472875zm-7.338905,13.511994l-2.700215,-2.700215l0.76993,-0.77266l0.958317,0.963777l0.384965,-0.384965l-0.963777,-0.966508l0.77266,-0.77266l1.365124,1.365124l0.379504,-0.398616l-1.365124,-1.351472l0.791772,-0.77266l0.963777,0.966508l0.387695,-0.387695l-0.966508,-0.963777l0.77266,-0.77266l1.365124,1.351472l0.387695,-0.387695l-1.351472,-1.351472l0.76993,-0.76993l0.947396,0.963777l0.384965,-0.384965l-0.963777,-0.966508l0.77266,-0.77266l1.351472,1.351472l0.384965,-0.384965l-1.365124,-1.351472l0.799962,-0.77266l0.966508,0.966508l0.384965,-0.387695l-0.966508,-0.963777l0.77266,-0.77266l1.365124,1.351472l0.387695,-0.387695l-1.365124,-1.365124l0.77266,-0.76993l2.700215,2.700215l-10.052771,10.052771z"/>
 </g>
</svg>