<svg width="16" height="16" xmlns="http://www.w3.org/2000/svg">

 <g>
  <title>background</title>
  <rect fill="none" id="canvas_background" height="18" width="18" y="-1" x="-1"/>
 </g>
 <g>
  <title>Layer 1</title>
  <g stroke="null" id="svg_18">
   <path stroke="null" id="svg_2" d="m13.462923,4.209575l0.149615,0.016471l0.016471,0.149615c0.007778,0.071833 0.068631,0.12628 0.140922,0.12628c0.072291,0 0.132686,-0.053989 0.140464,-0.12628l0.016471,-0.149615l0.149615,-0.016471c0.071833,-0.007778 0.12628,-0.068173 0.12628,-0.140464c0,-0.071833 -0.053989,-0.132686 -0.125823,-0.140464l-0.149615,-0.016929l-0.016471,-0.149615c-0.007778,-0.071833 -0.068631,-0.12628 -0.140464,-0.12628c-0.072291,0 -0.132686,0.053989 -0.140922,0.12628l-0.016471,0.149615l-0.149615,0.016929c-0.071833,0.007778 -0.125823,0.068631 -0.125823,0.140464c-0.000915,0.072291 0.053532,0.132686 0.125365,0.140464z"/>
   <path stroke="null" id="svg_3" d="m13.993209,8.232244c0,-0.204062 -0.014641,-0.404921 -0.035688,-0.603949c0,-0.010066 -0.002288,-0.019217 -0.004118,-0.029282c-0.274065,-2.430439 -2.099182,-4.444062 -4.54838,-4.905717l-0.157393,-0.026995c-0.00183,-0.000458 -0.00366,-0.000915 -0.00549,-0.000915l-0.025165,-0.004575c-0.001373,-0.000458 -0.003203,-0.000458 -0.005033,-0.000915c-0.285503,-0.043924 -0.577412,-0.066343 -0.868406,-0.066343c-2.458349,0 -4.618841,1.570269 -5.376066,3.90737c-0.105234,0.324852 -0.181185,0.662514 -0.226024,1.00338c-0.032028,0.24341 -0.048041,0.491853 -0.048041,0.738923c0,0.071833 0.001373,0.143667 0.004118,0.215043c0.035688,0.94207 0.30838,1.866295 0.789252,2.673392c0.006863,0.011438 0.015099,0.022877 0.024707,0.032485c0.00183,0.00183 0.00366,0.004118 0.005948,0.005948c0.053532,0.05582 0.097455,0.110267 0.134058,0.166086c0.46074,0.697287 1.064232,1.261431 1.750996,1.685568c0.021962,0.022877 0.048499,0.039806 0.079612,0.049414c0.857883,0.509697 1.843419,0.797945 2.875166,0.797945c1.98617,0 3.78841,-1.014818 4.816955,-2.702674c0.010523,-0.010523 0.019674,-0.022419 0.026995,-0.03523c0.51839,-0.870694 0.792912,-1.869041 0.792912,-2.89301l0,-0.005948l-0.000915,0zm-0.424595,-0.668005c-0.12811,0.136804 -0.296027,0.331715 -0.355964,0.474466c-0.011896,0.010981 -0.05948,0.02608 -0.087847,0.03523c-0.083729,0.026537 -0.198114,0.062683 -0.253018,0.180727c-0.03523,0.075494 -0.033858,0.161511 0.004575,0.254848c0.068631,0.167001 0.110267,0.586563 -0.104776,0.801606c-0.287791,0.287791 -0.465773,0.567804 -0.465773,1.07384c0,0.378841 -0.320276,0.85651 -0.620421,1.274242c-0.034315,0.047584 -0.071376,0.095168 -0.112097,0.143209c-0.040263,0.048041 -0.082814,0.095168 -0.126738,0.141379c-0.069088,0.071833 -0.140006,0.139549 -0.21184,0.200859c-0.110267,0.056735 -0.225566,0.110724 -0.350931,0.166086c-0.043466,0.019217 -0.08739,0.037976 -0.131313,0.05582c-0.023334,-0.041178 -0.054447,-0.104776 -0.092423,-0.199944c-0.128568,-0.324852 -0.24158,-0.785592 -0.24158,-0.986908c0,-0.131313 0.032943,-0.205434 0.074121,-0.29923c0.045754,-0.104319 0.097913,-0.221906 0.097913,-0.402633c0,-0.211382 -0.104319,-0.347728 -0.18027,-0.447014c-0.064513,-0.084187 -0.097913,-0.131771 -0.097913,-0.201774c0,-0.344526 -0.189421,-0.532574 -0.341323,-0.684019l-0.018759,-0.018759c-0.170204,-0.170661 -0.421392,-0.0668 -0.686764,0.042551c-0.145039,0.05948 -0.309753,0.127195 -0.413614,0.127195c-0.206807,0 -0.570092,-0.351389 -0.76729,-0.666175c-0.159223,-0.254848 -0.087847,-1.219337 0.216873,-1.443988c0.446099,-0.328969 0.577412,-0.69683 0.582903,-0.712386c0.028367,-0.082357 -0.003203,-0.173864 -0.076409,-0.220991c-0.133143,-0.085102 -0.156935,-0.172492 -0.163341,-0.231056c-0.021504,-0.198114 0.1487,-0.450674 0.260796,-0.562771c0.048041,-0.048041 0.241122,-0.064513 0.356422,-0.075036c0.177067,-0.015099 0.330342,-0.028367 0.425052,-0.123993c0.140464,-0.140006 0.103861,-0.322564 0.076866,-0.455707c-0.010981,-0.05582 -0.021962,-0.108436 -0.022877,-0.144582c0.014184,-0.038891 0.159681,-0.164256 0.497343,-0.282301c0.296942,-0.104319 0.737093,-0.538522 0.775526,-0.57787l0.072291,-0.061768c1.347905,0.818535 2.277164,2.220887 2.482598,3.826844zm-5.225078,-4.593676c0.193538,0 0.385704,0.014184 0.574667,0.034773l-0.093795,0.164713c-0.004575,0.007321 -0.466688,0.72657 -1.093515,0.842784c-0.740296,0.136804 -0.832718,0.202689 -1.039525,0.409954c-0.05948,0.05948 -0.125365,0.074121 -0.131313,0.076866c-0.002745,-0.004118 -0.010066,-0.023792 -0.010066,-0.062683c0,-0.079612 0.018301,-0.164713 0.034315,-0.239292c0.029282,-0.136804 0.062683,-0.291909 -0.059937,-0.394397c-0.127653,-0.107064 -0.304262,-0.03523 -0.380214,-0.004575l-0.070003,0.02791c-0.249358,0.100201 -0.464858,0.186675 -0.506494,0.389364c-0.023792,0.117587 0.025622,0.21916 0.077324,0.290079c-0.147785,0.060395 -0.39211,0.202689 -0.285046,0.543097c0.037976,0.122163 0.075494,0.2155 0.106149,0.290994c0.022419,0.055362 0.050329,0.124908 0.050787,0.141379c-0.000458,0.000458 -0.006406,0.016014 -0.043924,0.053532c-0.00183,0.00183 -0.00366,0.00366 -0.00549,0.005033c-0.016014,-0.009151 -0.037976,-0.023792 -0.054447,-0.03523c-0.073664,-0.049872 -0.174322,-0.118502 -0.31021,-0.118502c-0.296942,0 -0.297399,0.297399 -0.297399,0.394855c0,0.032485 0,0.088762 -0.00549,0.113927c-0.026995,0.00366 -0.074121,0.004575 -0.107064,0.005033c-0.125823,0.00183 -0.297857,0.004575 -0.45159,0.103403c-0.123993,0.080069 -0.21184,0.208637 -0.260796,0.381129c-0.022877,0.080527 -0.059937,0.161968 -0.109809,0.242037c-0.012811,0.020132 -0.02608,0.039806 -0.039806,0.05948c-0.028367,0.039806 -0.05948,0.078239 -0.09288,0.115299c-0.016929,0.019217 -0.034315,0.037518 -0.052159,0.055362c-0.053532,0.054447 -0.113469,0.107064 -0.177067,0.156478c-0.021504,0.016471 -0.043466,0.032485 -0.06497,0.048041c-0.084644,0.060395 -0.175237,0.114384 -0.26949,0.161968c0.040263,-0.205434 0.088305,-0.409496 0.15236,-0.607152c0.706438,-2.180166 2.722348,-3.645659 5.016899,-3.645659zm-4.377719,8.157436c-0.047126,-0.071376 -0.101573,-0.139549 -0.166086,-0.20818c-0.441981,-0.748531 -0.692254,-1.604126 -0.725197,-2.475278c-0.00183,-0.054904 -0.002745,-0.109809 -0.003203,-0.164713c0.007778,0.025622 0.016471,0.050787 0.02608,0.075951c0.017844,0.045296 0.038433,0.089677 0.062683,0.131771c0.042093,0.074579 0.093795,0.142752 0.153733,0.202689c0.025165,0.025165 0.053532,0.045754 0.088762,0.064513c0.005033,0.002288 0.023792,0.010523 0.028825,0.012811c0.020589,0.007778 0.041636,0.013726 0.064513,0.017844c0.026995,0.004575 0.054447,0.006863 0.086017,0.004575c0.02974,-0.001373 0.060852,-0.006406 0.090135,-0.012811l0.0668,-0.016014l-0.046211,-0.183015l0.070461,0.177067l0.030655,-0.006406c0.058107,-0.011896 0.095168,-0.009608 0.132686,0.007321c0.095625,0.042551 0.284588,0.155105 0.492768,0.293739c0.090135,0.059937 0.179812,0.12262 0.260339,0.181185c0.156935,0.114842 0.223736,0.175237 0.249815,0.200859c0.048041,0.048041 0.063598,0.08922 0.08556,0.146412c0.037518,0.098828 0.088762,0.233344 0.293282,0.338578c0.0668,0.034315 0.161053,0.071833 0.270405,0.115299c0.177525,0.070461 0.648788,0.257594 0.686764,0.36603c0,0.08922 -0.02791,0.122163 -0.078696,0.1821c-0.05582,0.065428 -0.140006,0.164713 -0.140006,0.328054c0,0.03523 0.00366,0.075036 0.010981,0.118502c0.007778,0.047584 0.019674,0.100658 0.032028,0.15602c0.0334,0.1487 0.079612,0.352761 0.012354,0.420019c-0.05765,0.05765 -0.125823,0.08739 -0.204977,0.122163c-0.140464,0.061768 -0.314786,0.138176 -0.433746,0.377926c-0.034773,0.071376 -0.065428,0.274522 -0.086017,0.460283c-0.549503,-0.378841 -1.03129,-0.86017 -1.411503,-1.435295zm9.649923,-2.884774c0,0.950305 -0.255763,1.882309 -0.734805,2.682085c-0.010066,0.010066 -0.018759,0.021504 -0.02608,0.033858c-0.963116,1.585825 -2.645024,2.532928 -4.498509,2.532928c-0.938409,0 -1.837013,-0.254391 -2.623062,-0.70781c0.014184,-0.165629 0.049872,-0.45891 0.068173,-0.514272c0.05765,-0.116672 0.128568,-0.147785 0.246613,-0.199486c0.09471,-0.041636 0.212297,-0.093338 0.320276,-0.200859c0.214128,-0.214585 0.141837,-0.535319 0.08922,-0.769578c-0.010981,-0.048041 -0.021047,-0.093338 -0.02791,-0.134516c-0.003203,-0.021047 -0.005948,-0.040263 -0.005948,-0.056735c0,-0.020589 0.004118,-0.029282 0.050329,-0.083729c0.067258,-0.079154 0.168374,-0.198571 0.168374,-0.426425c0,-0.350016 -0.491395,-0.544927 -0.924683,-0.716961c-0.096083,-0.037976 -0.187133,-0.074121 -0.237462,-0.100201c-0.075494,-0.038891 -0.084187,-0.061768 -0.113012,-0.136804c-0.02791,-0.073206 -0.065885,-0.173864 -0.171119,-0.27864c-0.05948,-0.05948 -0.158766,-0.140464 -0.294197,-0.239292c-0.084644,-0.061768 -0.17844,-0.127195 -0.27315,-0.190336c-0.109809,-0.073206 -0.382959,-0.251188 -0.549045,-0.324852c-0.144582,-0.064513 -0.274065,-0.049414 -0.358709,-0.032943l-0.126738,0.028825c-0.008236,0.00183 -0.016014,0.00366 -0.024707,0.004575c-0.031113,-0.032943 -0.058107,-0.070003 -0.080984,-0.110724c-0.015099,-0.026537 -0.028367,-0.054904 -0.039348,-0.083272c-0.007778,-0.019674 -0.014641,-0.039806 -0.020589,-0.059937l-0.008693,-0.03157c-0.010981,-0.043009 -0.018759,-0.086932 -0.023792,-0.130856c-0.019217,-0.166544 -0.001373,-0.338578 0.022877,-0.473094c0.084187,-0.046669 0.166086,-0.097455 0.243867,-0.152818c0.025622,-0.018301 0.051244,-0.037061 0.076409,-0.056735c0.077324,-0.05948 0.149157,-0.123535 0.215043,-0.189421c0.022419,-0.022877 0.043924,-0.045754 0.06497,-0.069088c0.042551,-0.047584 0.081899,-0.09654 0.118045,-0.14687c0.018301,-0.025622 0.035688,-0.051702 0.052617,-0.078239c0.069546,-0.110724 0.121247,-0.225108 0.15419,-0.340408c0.023334,-0.083272 0.056735,-0.137719 0.102031,-0.167001c0.062683,-0.040263 0.159223,-0.041636 0.252561,-0.043009c0.123535,-0.00183 0.263999,-0.00366 0.365572,-0.105234c0.110724,-0.110267 0.118045,-0.260339 0.11896,-0.36786c0.006406,0.004118 0.012354,0.008236 0.018301,0.012354c0.093338,0.063598 0.311125,0.21184 0.538522,-0.015556c0.227396,-0.227396 0.157393,-0.40126 0.076409,-0.602577c-0.027452,-0.068173 -0.06131,-0.151902 -0.096083,-0.262627c-0.008236,-0.02608 -0.008236,-0.040721 -0.009608,-0.040721c0,0 0,0 0,0c0.014641,-0.019217 0.087847,-0.044839 0.126738,-0.058565c0.096998,-0.034315 0.230599,-0.080984 0.262627,-0.223278c0.032485,-0.143209 -0.073664,-0.249358 -0.108894,-0.284131c-0.015099,-0.015099 -0.02608,-0.027452 -0.033858,-0.037061c0.053532,-0.032943 0.158766,-0.075951 0.244325,-0.110724c-0.015099,0.075494 -0.029282,0.162426 -0.029282,0.254848c0,0.277725 0.163341,0.375638 0.233802,0.404921c0.169289,0.070003 0.390737,0.008693 0.55179,-0.151902c0.144582,-0.145039 0.183473,-0.18393 0.841411,-0.305635c0.787422,-0.145954 1.321368,-0.976843 1.348363,-1.019394l0.172492,-0.30289l0.016471,0.002745c0.496886,0.093795 0.964947,0.258509 1.398235,0.478584c-0.167001,0.164256 -0.464401,0.422307 -0.621336,0.477212c-0.341781,0.119417 -0.748989,0.325767 -0.748989,0.628657c0,0.083729 0.015556,0.161053 0.029282,0.228769c0.007321,0.035688 0.017386,0.086932 0.023334,0.106606c-0.044381,0.010066 -0.128568,0.017386 -0.188048,0.022877c-0.208637,0.017844 -0.445642,0.038891 -0.590681,0.18393c-0.155563,0.155563 -0.407666,0.513815 -0.369233,0.870236c0.012354,0.113469 0.058565,0.264457 0.199486,0.40126c-0.063598,0.104776 -0.18393,0.265372 -0.391195,0.418647c-0.481787,0.355507 -0.561856,1.548764 -0.312956,1.947737c0.182557,0.291909 0.64467,0.843699 1.087567,0.843699c0.17844,0 0.371063,-0.079154 0.557281,-0.155563c0.095625,-0.039348 0.235632,-0.096998 0.297857,-0.103403c0.141379,0.140922 0.227854,0.237004 0.227854,0.414529c0,0.201316 0.096998,0.328512 0.175237,0.431c0.067716,0.088305 0.102946,0.138176 0.102946,0.218245c0,0.101116 -0.027452,0.163798 -0.065885,0.250273c-0.047584,0.107521 -0.106149,0.240665 -0.106149,0.45159c0,0.277725 0.139091,0.800691 0.268117,1.126c0.076866,0.193996 0.15053,0.324394 0.223736,0.3976c0.023334,0.023792 0.050329,0.043466 0.079612,0.05765c0.026537,0.013269 0.055362,0.020132 0.084644,0.020132c0.022877,0 0.046211,-0.004118 0.068173,-0.012811c0.09105,-0.03523 0.181185,-0.072748 0.270405,-0.112097c0.140464,-0.061768 0.268117,-0.122163 0.395312,-0.188048c0.011438,-0.005948 0.022419,-0.013726 0.032028,-0.021962c0.08739,-0.073664 0.173864,-0.155105 0.256679,-0.24158c0.049872,-0.052159 0.097913,-0.105691 0.142752,-0.159223c0.046669,-0.054904 0.090135,-0.110724 0.129941,-0.166086c0.33446,-0.465773 0.691339,-1.00338 0.691339,-1.494317c0,-0.382044 0.119875,-0.571464 0.355507,-0.807096c0.310668,-0.310668 0.312498,-0.827228 0.210467,-1.147046c0.093338,-0.02974 0.23975,-0.080984 0.30655,-0.236547c0.010066,-0.022877 0.02974,-0.054904 0.054904,-0.09105c0.000915,0.043466 0.005948,0.086017 0.005948,0.129483l0,0.009608l-0.00183,0z"/>
   <path stroke="null" id="svg_4" d="m12.195544,2.416943c0.241122,0 0.468061,-0.093795 0.638265,-0.264457c0.054904,-0.054904 0.102488,-0.116215 0.141379,-0.183015c0.030655,-0.052159 0.043466,-0.108894 0.062225,-0.164713c0.021047,-0.034773 0.037518,-0.072291 0.044381,-0.114842c0,-0.000915 -0.000915,-0.00183 -0.000915,-0.002745c0.056277,-0.288706 -0.030655,-0.594799 -0.247528,-0.811672c-0.177067,-0.177067 -0.413156,-0.255763 -0.650618,-0.253018c-0.008236,-0.00183 -0.013269,-0.010066 -0.021962,-0.010523c-0.048041,-0.004118 -0.091965,0.003203 -0.133143,0.016014c-0.099743,0.018759 -0.197199,0.053074 -0.288249,0.106149c-0.0668,0.038891 -0.128568,0.086932 -0.183015,0.141379c-0.170661,0.170661 -0.264457,0.397143 -0.264457,0.638265c0,0.24158 0.093795,0.468061 0.264457,0.638722c0.171577,0.170204 0.398058,0.264457 0.63918,0.264457zm0.438321,-1.3415c0.15236,0.15236 0.209552,0.368775 0.165629,0.571007c-0.087847,-0.010066 -0.315243,-0.12079 -0.502834,-0.312498c-0.159223,-0.162426 -0.207722,-0.379299 -0.193538,-0.428255c0.030655,-0.004575 0.060852,-0.011896 0.091507,-0.011896c0.160596,0 0.319819,0.062225 0.439236,0.181642zm-0.876184,0c0.021962,-0.021962 0.048499,-0.038433 0.073664,-0.057192c0.026995,0.176609 0.127195,0.374723 0.263542,0.513815c0.154648,0.157393 0.381586,0.312041 0.578327,0.36969c-0.013269,0.016471 -0.023792,0.03523 -0.038891,0.049872c-0.234259,0.234259 -0.642383,0.234259 -0.876642,0c-0.11713,-0.11713 -0.181642,-0.272692 -0.181642,-0.438321c-0.000458,-0.165171 0.064055,-0.320734 0.181642,-0.437863z"/>
   <path stroke="null" id="svg_5" d="m3.42272,1.423793l0.383416,0.042551l0.042551,0.383874c0.007778,0.071833 0.068631,0.12628 0.140922,0.12628c0.072291,0 0.132686,-0.054447 0.140464,-0.12628l0.042551,-0.383874l0.383416,-0.042551c0.071833,-0.007778 0.125823,-0.068173 0.125823,-0.140464c0,-0.071833 -0.054447,-0.132686 -0.125823,-0.140464l-0.383416,-0.043009l-0.042551,-0.383416c-0.007778,-0.071833 -0.068631,-0.125823 -0.140464,-0.125823c-0.072291,0 -0.132686,0.053989 -0.140922,0.125823l-0.042551,0.383416l-0.383416,0.042551c-0.071833,0.007778 -0.125823,0.068631 -0.125823,0.140464c-0.000458,0.072748 0.053989,0.133143 0.125823,0.140922z"/>
   <path stroke="null" id="svg_6" d="m9.111284,2.141505c0.027452,0.027452 0.064055,0.041636 0.100201,0.041636c0.036145,0 0.072291,-0.013726 0.100201,-0.041636l0.186675,-0.186675c0.055362,-0.055362 0.055362,-0.145039 0,-0.199944l-0.186675,-0.186675c-0.026537,-0.026537 -0.062683,-0.041636 -0.100201,-0.041636c-0.037518,0 -0.073664,0.015099 -0.100201,0.041636l-0.186675,0.186675c-0.026537,0.026537 -0.041636,0.062683 -0.041636,0.100201c0,0.037518 0.015099,0.073664 0.041636,0.100201l0.186675,0.186218z"/>
   <path stroke="null" id="svg_7" d="m14.933906,6.80427l-0.186675,-0.186675c-0.055362,-0.055362 -0.145039,-0.055362 -0.199944,0l-0.186675,0.186675c-0.026537,0.026537 -0.041636,0.062683 -0.041636,0.100201c0,0.037518 0.015099,0.073664 0.041636,0.100201l0.186675,0.186675c0.027452,0.027452 0.064055,0.041636 0.100201,0.041636s0.072291,-0.013726 0.100201,-0.041636l0.186675,-0.186675c0.054904,-0.055362 0.054904,-0.145039 -0.000458,-0.200401z"/>
   <path stroke="null" id="svg_8" d="m4.69925,2.561982l0.186675,0.186675c0.027452,0.027452 0.064055,0.041636 0.100201,0.041636s0.072291,-0.013726 0.099743,-0.041636l0.186675,-0.186675c0.026537,-0.026537 0.041636,-0.062683 0.041636,-0.100201c0,-0.037518 -0.015099,-0.073664 -0.041636,-0.100201l-0.186675,-0.186675c-0.053074,-0.053074 -0.147327,-0.053074 -0.200401,0l-0.186675,0.187133c-0.054904,0.055362 -0.054904,0.144582 0.000458,0.199944z"/>
   <path stroke="null" id="svg_9" d="m2.659548,6.006782c0.027452,0.027452 0.064055,0.041636 0.100201,0.041636c0.036145,0 0.072291,-0.013726 0.100201,-0.041636l0.186675,-0.186675c0.026537,-0.026537 0.041636,-0.062683 0.041636,-0.100201s-0.015099,-0.073664 -0.041636,-0.100201l-0.186675,-0.186675c-0.055362,-0.055362 -0.145039,-0.055362 -0.199944,0l-0.186675,0.186675c-0.026537,0.026537 -0.041636,0.062683 -0.041636,0.100201s0.015099,0.073664 0.041636,0.100201l0.186218,0.186675z"/>
   <path stroke="null" id="svg_10" d="m1.472238,7.575678c-0.055362,-0.055362 -0.145039,-0.055362 -0.199944,0l-0.186675,0.186675c-0.055362,0.055362 -0.055362,0.145039 0,0.199944l0.186675,0.186675c0.026537,0.026537 0.062683,0.041636 0.100201,0.041636c0.037518,0 0.073664,-0.015099 0.100201,-0.041636l0.186675,-0.186675c0.026537,-0.026537 0.041636,-0.062683 0.041636,-0.100201c0,-0.037518 -0.015099,-0.073664 -0.041636,-0.100201l-0.187133,-0.186218z"/>
   <path stroke="null" id="svg_11" d="m7.95721,1.251759c0.027452,0.027452 0.064055,0.041636 0.100201,0.041636s0.072291,-0.013726 0.100201,-0.041636l0.186675,-0.186675c0.026537,-0.026537 0.041636,-0.062683 0.041636,-0.100201c0,-0.037518 -0.015099,-0.073664 -0.041636,-0.100201l-0.186675,-0.186675c-0.055362,-0.055362 -0.145039,-0.055362 -0.199944,0l-0.186675,0.186675c-0.055362,0.055362 -0.055362,0.145039 0,0.199944l0.186218,0.187133z"/>
   <path stroke="null" id="svg_12" d="m4.899194,13.807503c-0.026537,-0.026537 -0.062683,-0.041636 -0.100201,-0.041636s-0.073664,0.015099 -0.100201,0.041636l-0.186675,0.186675c-0.026537,0.026537 -0.041636,0.062683 -0.041636,0.100201c0,0.037518 0.015099,0.073664 0.041636,0.100201l0.186675,0.186675c0.027452,0.027452 0.064055,0.041636 0.100201,0.041636s0.072291,-0.013726 0.100201,-0.041636l0.186675,-0.186675c0.055362,-0.055362 0.055362,-0.145039 0,-0.199944l-0.186675,-0.187133z"/>
   <path stroke="null" id="svg_13" d="m3.724695,12.938639c-0.055362,-0.055362 -0.145039,-0.055362 -0.199944,0l-0.186675,0.186675c-0.055362,0.055362 -0.055362,0.145039 0,0.199944l0.186675,0.186675c0.027452,0.027452 0.064055,0.041636 0.100201,0.041636s0.072291,-0.013726 0.100201,-0.041636l0.186675,-0.186675c0.026537,-0.026537 0.041636,-0.062683 0.041636,-0.100201s-0.015099,-0.073664 -0.041636,-0.100201l-0.187133,-0.186218z"/>
   <path stroke="null" id="svg_14" d="m14.360154,12.734577l-0.161053,-0.017844l-0.017844,-0.161053c-0.007778,-0.071833 -0.068631,-0.12628 -0.140464,-0.12628c-0.072291,0 -0.132686,0.053989 -0.140464,0.125823l-0.017844,0.161053l-0.161053,0.017844c-0.071833,0.007778 -0.125823,0.068173 -0.125823,0.140464c0,0.071833 0.053989,0.132686 0.125823,0.140464l0.161053,0.017844l0.017844,0.161053c0.008236,0.071833 0.068631,0.125823 0.140464,0.125823c0.072291,0 0.132686,-0.054447 0.140464,-0.12628l0.017844,-0.161053l0.161053,-0.017844c0.071833,-0.007778 0.125823,-0.068631 0.125823,-0.140464c0,-0.070918 -0.054447,-0.131313 -0.125823,-0.139549z"/>
   <path stroke="null" id="svg_15" d="m2.775305,11.713354l-0.238377,-0.026537l-0.026537,-0.238377c-0.007778,-0.071833 -0.068631,-0.12628 -0.140922,-0.12628c-0.072291,0 -0.132686,0.053989 -0.140464,0.125823l-0.026537,0.238835l-0.238835,0.026537c-0.071833,0.007778 -0.125823,0.068631 -0.125823,0.140464c0,0.072291 0.054447,0.132686 0.12628,0.140464l0.238377,0.026537l0.026537,0.238835c0.007778,0.071833 0.068631,0.125823 0.140464,0.125823c0.072291,0 0.132686,-0.054447 0.140922,-0.12628l0.026537,-0.238377l0.238377,-0.026537c0.071833,-0.007778 0.125823,-0.068173 0.125823,-0.140464c0,-0.072291 -0.053989,-0.132686 -0.125823,-0.140464z"/>
   <path stroke="null" id="svg_16" d="m9.544572,14.689635c-0.055362,-0.055362 -0.145039,-0.055362 -0.199944,0l-0.186675,0.186675c-0.026537,0.026537 -0.041636,0.062683 -0.041636,0.100201c0,0.037518 0.015099,0.073664 0.041636,0.100201l0.186675,0.186675c0.027452,0.027452 0.064055,0.041636 0.100201,0.041636c0.036145,0 0.072291,-0.013726 0.100201,-0.041636l0.186675,-0.186675c0.055362,-0.055362 0.055362,-0.145039 0,-0.199944l-0.187133,-0.187133z"/>
   <path stroke="null" id="svg_17" d="m10.905746,13.719656c-0.026537,-0.026537 -0.062683,-0.041636 -0.100201,-0.041636s-0.073664,0.015099 -0.100201,0.041636l-0.186675,0.186675c-0.026537,0.026537 -0.041636,0.062683 -0.041636,0.100201c0,0.037518 0.015099,0.073664 0.041636,0.100201l0.186675,0.186675c0.027452,0.027452 0.064055,0.041636 0.100201,0.041636s0.072291,-0.013726 0.100201,-0.041636l0.186675,-0.186675c0.055362,-0.055362 0.055362,-0.145039 0,-0.199944l-0.186675,-0.187133z"/>
  </g>
 </g>
</svg>