<svg width="16" height="16" xmlns="http://www.w3.org/2000/svg">

 <title/>
 <g>
  <title>background</title>
  <rect fill="none" id="canvas_background" height="18" width="18" y="-1" x="-1"/>
 </g>
 <g>
  <title>Layer 1</title>
  <g stroke="null" id="svg_11">
   <polygon stroke="null" fill="#101820" id="svg_8" points="14.385570481419563,11.26125156879425 12.559584572911263,13.087237477302551 12.559584572911263,11.26125156879425 14.385570481419563,11.26125156879425 " class="cls-1"/>
   <g stroke="null" id="svg_10">
    <path stroke="null" fill="#101820" id="svg_1" d="m12.603113,13.696081l-10.955913,0a0.456496,0.456496 0 0 1 -0.456496,-0.456496l0,-9.129928a0.912993,0.912993 0 0 1 0.912993,-0.912993l11.868906,0a0.912993,0.912993 0 0 1 0.912993,0.912993l0,7.303942a0.456496,0.456496 0 0 1 -0.132384,0.324112l-1.825986,1.825986a0.456496,0.456496 0 0 1 -0.324112,0.132384zm-10.499417,-0.912993l10.312253,0l1.556653,-1.556653l0,-7.116779l-11.868906,0l0,8.673431zm11.868906,-8.673431l0,0z" class="cls-1"/>
    <rect stroke="null" fill="#101820" id="svg_2" y="2.283672" x="7.581652" width="0.912993" height="1.369489" class="cls-1"/>
    <rect stroke="null" fill="#101820" id="svg_3" y="2.283672" x="3.473185" width="0.912993" height="1.369489" class="cls-1"/>
    <rect stroke="null" fill="#101820" id="svg_4" y="2.283672" x="11.69012" width="0.912993" height="1.369489" class="cls-1"/>
    <path stroke="null" fill="#101820" id="svg_5" d="m14.429098,6.848636l-12.781899,0a0.456496,0.456496 0 0 1 0,-0.912993l12.781899,0a0.456496,0.456496 0 0 1 0,0.912993z" class="cls-1"/>
    <path stroke="null" fill="#101820" id="svg_6" d="m6.66866,11.413599a0.456496,0.456496 0 0 1 -0.456496,-0.456496l0,-1.999454l-0.251073,0.123254a0.456496,0.456496 0 0 1 -0.410847,-0.812564l0.912993,-0.456496a0.456496,0.456496 0 0 1 0.66192,0.406282l0,2.738978a0.456496,0.456496 0 0 1 -0.456496,0.456496z" class="cls-1"/>
    <path stroke="null" fill="#101820" id="svg_7" d="m9.864134,11.413599l-0.912993,0a0.912993,0.912993 0 0 1 -0.912993,-0.912993l0,-1.825986a0.912993,0.912993 0 0 1 0.912993,-0.912993l0.912993,0a0.912993,0.912993 0 0 1 0.912993,0.912993l0,1.825986a0.912993,0.912993 0 0 1 -0.912993,0.912993zm-0.912993,-2.738978l0,1.825986l0.912993,0l0,-1.825986l-0.912993,0z" class="cls-1"/>
    <path stroke="null" fill="#101820" id="svg_9" d="m12.603113,13.696081a0.383457,0.383457 0 0 1 -0.173469,-0.03652a0.456496,0.456496 0 0 1 -0.283028,-0.419977l0,-1.825986a0.456496,0.456496 0 0 1 0.456496,-0.456496l1.825986,0a0.456496,0.456496 0 0 1 0.419977,0.283028a0.456496,0.456496 0 0 1 -0.095864,0.497581l-1.825986,1.825986a0.456496,0.456496 0 0 1 -0.324112,0.132384zm0.456496,-1.825986l0,0.269333l0.269333,-0.269333l-0.269333,0z" class="cls-1"/>
   </g>
  </g>
 </g>
</svg>